<?xml version="1.0" encoding="UTF-8" standalone="no"?><svg xmlns="http://www.w3.org/2000/svg" xmlns:xlink="http://www.w3.org/1999/xlink" contentStyleType="text/css" height="702px" preserveAspectRatio="none" style="width:1139px;height:702px;background:#FFFFFF;" version="1.1" viewBox="0 0 1139 702" width="1139px" zoomAndPan="magnify"><defs/><g><!--MD5=[f8592b7f66e76720f5809aafd5b37e09]
class Effet--><g id="elem_Effet"><rect codeLine="2" fill="#F1F1F1" height="171.2656" id="Effet" rx="2.5" ry="2.5" style="stroke:#181818;stroke-width:0.5;" width="203" x="509.5" y="311"/><ellipse cx="592.25" cy="327" fill="#ADD1B2" rx="11" ry="11" style="stroke:#181818;stroke-width:1.0;"/><path d="M595.0156,322.875 Q595.1719,322.6563 595.3594,322.5469 Q595.5469,322.4375 595.7656,322.4375 Q596.1406,322.4375 596.375,322.6953 Q596.6094,322.9531 596.6094,323.5625 L596.6094,325.0156 Q596.6094,325.625 596.375,325.8906 Q596.1406,326.1563 595.7656,326.1563 Q595.4219,326.1563 595.2188,325.9531 Q595.0156,325.7656 594.9063,325.25 Q594.8594,324.8906 594.6719,324.7031 Q594.3438,324.3281 593.7344,324.1094 Q593.125,323.8906 592.5,323.8906 Q591.7344,323.8906 591.1016,324.2188 Q590.4688,324.5469 589.9766,325.2969 Q589.4844,326.0469 589.4844,327.0781 L589.4844,328.1719 Q589.4844,329.4063 590.375,330.2266 Q591.2656,331.0469 592.8594,331.0469 Q593.7969,331.0469 594.4531,330.7969 Q594.8438,330.6406 595.2656,330.2031 Q595.5313,329.9375 595.6797,329.8594 Q595.8281,329.7813 596.0313,329.7813 Q596.3594,329.7813 596.6172,330.0391 Q596.875,330.2969 596.875,330.6406 Q596.875,330.9844 596.5313,331.3906 Q596.0313,331.9688 595.2344,332.2969 Q594.1563,332.75 592.8594,332.75 Q591.3438,332.75 590.1406,332.125 Q589.1563,331.625 588.4688,330.5547 Q587.7813,329.4844 587.7813,328.2031 L587.7813,327.0469 Q587.7813,325.7188 588.3984,324.5703 Q589.0156,323.4219 590.1094,322.8047 Q591.2031,322.1875 592.4375,322.1875 Q593.1719,322.1875 593.8203,322.3516 Q594.4688,322.5156 595.0156,322.875 Z " fill="#000000"/><text fill="#000000" font-family="sans-serif" font-size="14" lengthAdjust="spacing" textLength="29" x="612.75" y="332.7285">Effet</text><line style="stroke:#181818;stroke-width:0.5;" x1="510.5" x2="711.5" y1="343" y2="343"/><polygon fill="none" points="520.5,352.3047,524.5,356.3047,520.5,360.3047,516.5,356.3047" style="stroke:#B38D22;stroke-width:1.0;"/><text fill="#000000" font-family="sans-serif" font-size="14" lengthAdjust="spacing" textLength="121" x="529.5" y="361.5332">bandeau: Bandeau</text><polygon fill="none" points="520.5,369.9141,524.5,373.9141,520.5,377.9141,516.5,373.9141" style="stroke:#B38D22;stroke-width:1.0;"/><text fill="#000000" font-family="sans-serif" font-size="14" lengthAdjust="spacing" textLength="102" x="529.5" y="379.1426">message: String</text><line style="stroke:#181818;stroke-width:0.5;" x1="510.5" x2="711.5" y1="386.2188" y2="386.2188"/><ellipse cx="520.5" cy="400.5234" fill="#84BE84" rx="3" ry="3" style="stroke:#038048;stroke-width:1.0;"/><text fill="#000000" font-family="sans-serif" font-size="14" lengthAdjust="spacing" textLength="132" x="529.5" y="404.752">getMessage(): String</text><ellipse cx="520.5" cy="418.1328" fill="#84BE84" rx="3" ry="3" style="stroke:#038048;stroke-width:1.0;"/><text fill="#000000" font-family="sans-serif" font-size="14" lengthAdjust="spacing" textLength="105" x="529.5" y="422.3613">jouerEffet(): void</text><ellipse cx="520.5" cy="435.7422" fill="#84BE84" rx="3" ry="3" style="stroke:#038048;stroke-width:1.0;"/><text fill="#000000" font-family="sans-serif" font-size="14" lengthAdjust="spacing" textLength="177" x="529.5" y="439.9707">setBandeau(Bandeau): void</text><ellipse cx="520.5" cy="453.3516" fill="#84BE84" rx="3" ry="3" style="stroke:#038048;stroke-width:1.0;"/><text fill="#000000" font-family="sans-serif" font-size="14" lengthAdjust="spacing" textLength="152" x="529.5" y="457.5801">getBandeau(): Bandeau</text><ellipse cx="520.5" cy="470.9609" fill="#84BE84" rx="3" ry="3" style="stroke:#038048;stroke-width:1.0;"/><text fill="#000000" font-family="sans-serif" font-size="14" lengthAdjust="spacing" textLength="157" x="529.5" y="475.1895">setMessage(String): void</text></g><!--MD5=[f9314896c767aa89d616abb3188f5fc8]
class EffetApparition--><g id="elem_EffetApparition"><rect codeLine="11" fill="#F1F1F1" height="83.2188" id="EffetApparition" rx="2.5" ry="2.5" style="stroke:#181818;stroke-width:0.5;" width="164" x="9" y="159"/><ellipse cx="41.55" cy="175" fill="#ADD1B2" rx="11" ry="11" style="stroke:#181818;stroke-width:1.0;"/><path d="M44.3156,170.875 Q44.4719,170.6563 44.6594,170.5469 Q44.8469,170.4375 45.0656,170.4375 Q45.4406,170.4375 45.675,170.6953 Q45.9094,170.9531 45.9094,171.5625 L45.9094,173.0156 Q45.9094,173.625 45.675,173.8906 Q45.4406,174.1563 45.0656,174.1563 Q44.7219,174.1563 44.5188,173.9531 Q44.3156,173.7656 44.2063,173.25 Q44.1594,172.8906 43.9719,172.7031 Q43.6438,172.3281 43.0344,172.1094 Q42.425,171.8906 41.8,171.8906 Q41.0344,171.8906 40.4016,172.2188 Q39.7688,172.5469 39.2766,173.2969 Q38.7844,174.0469 38.7844,175.0781 L38.7844,176.1719 Q38.7844,177.4063 39.675,178.2266 Q40.5656,179.0469 42.1594,179.0469 Q43.0969,179.0469 43.7531,178.7969 Q44.1438,178.6406 44.5656,178.2031 Q44.8313,177.9375 44.9797,177.8594 Q45.1281,177.7813 45.3313,177.7813 Q45.6594,177.7813 45.9172,178.0391 Q46.175,178.2969 46.175,178.6406 Q46.175,178.9844 45.8313,179.3906 Q45.3313,179.9688 44.5344,180.2969 Q43.4563,180.75 42.1594,180.75 Q40.6438,180.75 39.4406,180.125 Q38.4563,179.625 37.7688,178.5547 Q37.0813,177.4844 37.0813,176.2031 L37.0813,175.0469 Q37.0813,173.7188 37.6984,172.5703 Q38.3156,171.4219 39.4094,170.8047 Q40.5031,170.1875 41.7375,170.1875 Q42.4719,170.1875 43.1203,170.3516 Q43.7688,170.5156 44.3156,170.875 Z " fill="#000000"/><text fill="#000000" font-family="sans-serif" font-size="14" lengthAdjust="spacing" textLength="93" x="59.45" y="180.7285">EffetApparition</text><line style="stroke:#181818;stroke-width:0.5;" x1="10" x2="172" y1="191" y2="191"/><polygon fill="none" points="20,200.3047,24,204.3047,20,208.3047,16,204.3047" style="stroke:#B38D22;stroke-width:1.0;"/><text fill="#000000" font-family="sans-serif" font-size="14" lengthAdjust="spacing" textLength="99" x="29" y="209.5332">direction: String</text><line style="stroke:#181818;stroke-width:0.5;" x1="10" x2="172" y1="216.6094" y2="216.6094"/><ellipse cx="20" cy="230.9141" fill="#84BE84" rx="3" ry="3" style="stroke:#038048;stroke-width:1.0;"/><text fill="#000000" font-family="sans-serif" font-size="14" lengthAdjust="spacing" textLength="138" x="29" y="235.1426">faireApparaitre(): void</text></g><!--MD5=[1d1d0f5b7861eeeb09f2bd57c2e73626]
class EffetFondRandom--><g id="elem_EffetFondRandom"><rect codeLine="15" fill="#F1F1F1" height="65.6094" id="EffetFondRandom" rx="2.5" ry="2.5" style="stroke:#181818;stroke-width:0.5;" width="200" x="511" y="167.5"/><ellipse cx="549.85" cy="183.5" fill="#ADD1B2" rx="11" ry="11" style="stroke:#181818;stroke-width:1.0;"/><path d="M552.6156,179.375 Q552.7719,179.1563 552.9594,179.0469 Q553.1469,178.9375 553.3656,178.9375 Q553.7406,178.9375 553.975,179.1953 Q554.2094,179.4531 554.2094,180.0625 L554.2094,181.5156 Q554.2094,182.125 553.975,182.3906 Q553.7406,182.6563 553.3656,182.6563 Q553.0219,182.6563 552.8188,182.4531 Q552.6156,182.2656 552.5063,181.75 Q552.4594,181.3906 552.2719,181.2031 Q551.9438,180.8281 551.3344,180.6094 Q550.725,180.3906 550.1,180.3906 Q549.3344,180.3906 548.7016,180.7188 Q548.0688,181.0469 547.5766,181.7969 Q547.0844,182.5469 547.0844,183.5781 L547.0844,184.6719 Q547.0844,185.9063 547.975,186.7266 Q548.8656,187.5469 550.4594,187.5469 Q551.3969,187.5469 552.0531,187.2969 Q552.4438,187.1406 552.8656,186.7031 Q553.1313,186.4375 553.2797,186.3594 Q553.4281,186.2813 553.6313,186.2813 Q553.9594,186.2813 554.2172,186.5391 Q554.475,186.7969 554.475,187.1406 Q554.475,187.4844 554.1313,187.8906 Q553.6313,188.4688 552.8344,188.7969 Q551.7563,189.25 550.4594,189.25 Q548.9438,189.25 547.7406,188.625 Q546.7563,188.125 546.0688,187.0547 Q545.3813,185.9844 545.3813,184.7031 L545.3813,183.5469 Q545.3813,182.2188 545.9984,181.0703 Q546.6156,179.9219 547.7094,179.3047 Q548.8031,178.6875 550.0375,178.6875 Q550.7719,178.6875 551.4203,178.8516 Q552.0688,179.0156 552.6156,179.375 Z " fill="#000000"/><text fill="#000000" font-family="sans-serif" font-size="14" lengthAdjust="spacing" textLength="115" x="569.15" y="189.2285">EffetFondRandom</text><line style="stroke:#181818;stroke-width:0.5;" x1="512" x2="710" y1="199.5" y2="199.5"/><line style="stroke:#181818;stroke-width:0.5;" x1="512" x2="710" y1="207.5" y2="207.5"/><ellipse cx="522" cy="221.8047" fill="#84BE84" rx="3" ry="3" style="stroke:#038048;stroke-width:1.0;"/><text fill="#000000" font-family="sans-serif" font-size="14" lengthAdjust="spacing" textLength="174" x="531" y="226.0332">changeCouleurFond(): void</text></g><!--MD5=[303e2d879b914e335c737e3b0d944001]
class EffetCouleurRandom--><g id="elem_EffetCouleurRandom"><rect codeLine="18" fill="#F1F1F1" height="65.6094" id="EffetCouleurRandom" rx="2.5" ry="2.5" style="stroke:#181818;stroke-width:0.5;" width="202" x="746" y="167.5"/><ellipse cx="778.1" cy="183.5" fill="#ADD1B2" rx="11" ry="11" style="stroke:#181818;stroke-width:1.0;"/><path d="M780.8656,179.375 Q781.0219,179.1563 781.2094,179.0469 Q781.3969,178.9375 781.6156,178.9375 Q781.9906,178.9375 782.225,179.1953 Q782.4594,179.4531 782.4594,180.0625 L782.4594,181.5156 Q782.4594,182.125 782.225,182.3906 Q781.9906,182.6563 781.6156,182.6563 Q781.2719,182.6563 781.0688,182.4531 Q780.8656,182.2656 780.7563,181.75 Q780.7094,181.3906 780.5219,181.2031 Q780.1938,180.8281 779.5844,180.6094 Q778.975,180.3906 778.35,180.3906 Q777.5844,180.3906 776.9516,180.7188 Q776.3188,181.0469 775.8266,181.7969 Q775.3344,182.5469 775.3344,183.5781 L775.3344,184.6719 Q775.3344,185.9063 776.225,186.7266 Q777.1156,187.5469 778.7094,187.5469 Q779.6469,187.5469 780.3031,187.2969 Q780.6938,187.1406 781.1156,186.7031 Q781.3813,186.4375 781.5297,186.3594 Q781.6781,186.2813 781.8813,186.2813 Q782.2094,186.2813 782.4672,186.5391 Q782.725,186.7969 782.725,187.1406 Q782.725,187.4844 782.3813,187.8906 Q781.8813,188.4688 781.0844,188.7969 Q780.0063,189.25 778.7094,189.25 Q777.1938,189.25 775.9906,188.625 Q775.0063,188.125 774.3188,187.0547 Q773.6313,185.9844 773.6313,184.7031 L773.6313,183.5469 Q773.6313,182.2188 774.2484,181.0703 Q774.8656,179.9219 775.9594,179.3047 Q777.0531,178.6875 778.2875,178.6875 Q779.0219,178.6875 779.6703,178.8516 Q780.3188,179.0156 780.8656,179.375 Z " fill="#000000"/><text fill="#000000" font-family="sans-serif" font-size="14" lengthAdjust="spacing" textLength="132" x="795.9" y="189.2285">EffetCouleurRandom</text><line style="stroke:#181818;stroke-width:0.5;" x1="747" x2="947" y1="199.5" y2="199.5"/><line style="stroke:#181818;stroke-width:0.5;" x1="747" x2="947" y1="207.5" y2="207.5"/><ellipse cx="757" cy="221.8047" fill="#84BE84" rx="3" ry="3" style="stroke:#038048;stroke-width:1.0;"/><text fill="#000000" font-family="sans-serif" font-size="14" lengthAdjust="spacing" textLength="176" x="766" y="226.0332">changeCouleurTexte(): void</text></g><!--MD5=[5c87ccbd012f3ce98e3e74f35f586062]
class EffetTourEntier--><g id="elem_EffetTourEntier"><rect codeLine="21" fill="#F1F1F1" height="65.6094" id="EffetTourEntier" rx="2.5" ry="2.5" style="stroke:#181818;stroke-width:0.5;" width="149" x="983.5" y="167.5"/><ellipse cx="1007.95" cy="183.5" fill="#ADD1B2" rx="11" ry="11" style="stroke:#181818;stroke-width:1.0;"/><path d="M1010.7156,179.375 Q1010.8719,179.1563 1011.0594,179.0469 Q1011.2469,178.9375 1011.4656,178.9375 Q1011.8406,178.9375 1012.075,179.1953 Q1012.3094,179.4531 1012.3094,180.0625 L1012.3094,181.5156 Q1012.3094,182.125 1012.075,182.3906 Q1011.8406,182.6563 1011.4656,182.6563 Q1011.1219,182.6563 1010.9188,182.4531 Q1010.7156,182.2656 1010.6063,181.75 Q1010.5594,181.3906 1010.3719,181.2031 Q1010.0438,180.8281 1009.4344,180.6094 Q1008.825,180.3906 1008.2,180.3906 Q1007.4344,180.3906 1006.8016,180.7188 Q1006.1688,181.0469 1005.6766,181.7969 Q1005.1844,182.5469 1005.1844,183.5781 L1005.1844,184.6719 Q1005.1844,185.9063 1006.075,186.7266 Q1006.9656,187.5469 1008.5594,187.5469 Q1009.4969,187.5469 1010.1531,187.2969 Q1010.5438,187.1406 1010.9656,186.7031 Q1011.2313,186.4375 1011.3797,186.3594 Q1011.5281,186.2813 1011.7313,186.2813 Q1012.0594,186.2813 1012.3172,186.5391 Q1012.575,186.7969 1012.575,187.1406 Q1012.575,187.4844 1012.2313,187.8906 Q1011.7313,188.4688 1010.9344,188.7969 Q1009.8563,189.25 1008.5594,189.25 Q1007.0438,189.25 1005.8406,188.625 Q1004.8563,188.125 1004.1688,187.0547 Q1003.4813,185.9844 1003.4813,184.7031 L1003.4813,183.5469 Q1003.4813,182.2188 1004.0984,181.0703 Q1004.7156,179.9219 1005.8094,179.3047 Q1006.9031,178.6875 1008.1375,178.6875 Q1008.8719,178.6875 1009.5203,178.8516 Q1010.1688,179.0156 1010.7156,179.375 Z " fill="#000000"/><text fill="#000000" font-family="sans-serif" font-size="14" lengthAdjust="spacing" textLength="96" x="1024.05" y="189.2285">EffetTourEntier</text><line style="stroke:#181818;stroke-width:0.5;" x1="984.5" x2="1131.5" y1="199.5" y2="199.5"/><line style="stroke:#181818;stroke-width:0.5;" x1="984.5" x2="1131.5" y1="207.5" y2="207.5"/><ellipse cx="994.5" cy="221.8047" fill="#84BE84" rx="3" ry="3" style="stroke:#038048;stroke-width:1.0;"/><text fill="#000000" font-family="sans-serif" font-size="14" lengthAdjust="spacing" textLength="123" x="1003.5" y="226.0332">faireTourner(): void</text></g><!--MD5=[eb634612fb212ac3f93f488f664da40b]
class ExempleDUtilisation--><g id="elem_ExempleDUtilisation"><rect codeLine="24" fill="#F1F1F1" height="83.2188" id="ExempleDUtilisation" rx="2.5" ry="2.5" style="stroke:#181818;stroke-width:0.5;" width="155" x="138.5" y="7"/><ellipse cx="153.5" cy="23" fill="#ADD1B2" rx="11" ry="11" style="stroke:#181818;stroke-width:1.0;"/><path d="M156.2656,18.875 Q156.4219,18.6563 156.6094,18.5469 Q156.7969,18.4375 157.0156,18.4375 Q157.3906,18.4375 157.625,18.6953 Q157.8594,18.9531 157.8594,19.5625 L157.8594,21.0156 Q157.8594,21.625 157.625,21.8906 Q157.3906,22.1563 157.0156,22.1563 Q156.6719,22.1563 156.4688,21.9531 Q156.2656,21.7656 156.1563,21.25 Q156.1094,20.8906 155.9219,20.7031 Q155.5938,20.3281 154.9844,20.1094 Q154.375,19.8906 153.75,19.8906 Q152.9844,19.8906 152.3516,20.2188 Q151.7188,20.5469 151.2266,21.2969 Q150.7344,22.0469 150.7344,23.0781 L150.7344,24.1719 Q150.7344,25.4063 151.625,26.2266 Q152.5156,27.0469 154.1094,27.0469 Q155.0469,27.0469 155.7031,26.7969 Q156.0938,26.6406 156.5156,26.2031 Q156.7813,25.9375 156.9297,25.8594 Q157.0781,25.7813 157.2813,25.7813 Q157.6094,25.7813 157.8672,26.0391 Q158.125,26.2969 158.125,26.6406 Q158.125,26.9844 157.7813,27.3906 Q157.2813,27.9688 156.4844,28.2969 Q155.4063,28.75 154.1094,28.75 Q152.5938,28.75 151.3906,28.125 Q150.4063,27.625 149.7188,26.5547 Q149.0313,25.4844 149.0313,24.2031 L149.0313,23.0469 Q149.0313,21.7188 149.6484,20.5703 Q150.2656,19.4219 151.3594,18.8047 Q152.4531,18.1875 153.6875,18.1875 Q154.4219,18.1875 155.0703,18.3516 Q155.7188,18.5156 156.2656,18.875 Z " fill="#000000"/><text fill="#000000" font-family="sans-serif" font-size="14" lengthAdjust="spacing" textLength="123" x="167.5" y="28.7285">ExempleDUtilisation</text><line style="stroke:#181818;stroke-width:0.5;" x1="139.5" x2="292.5" y1="39" y2="39"/><line style="stroke:#181818;stroke-width:0.5;" x1="139.5" x2="292.5" y1="47" y2="47"/><ellipse cx="149.5" cy="61.3047" fill="#84BE84" rx="3" ry="3" style="stroke:#038048;stroke-width:1.0;"/><text fill="#000000" font-family="sans-serif" font-size="14" lengthAdjust="spacing" textLength="119" x="158.5" y="65.5332">main(String[]): void</text><ellipse cx="149.5" cy="78.9141" fill="#84BE84" rx="3" ry="3" style="stroke:#038048;stroke-width:1.0;"/><text fill="#000000" font-family="sans-serif" font-size="14" lengthAdjust="spacing" textLength="96" x="158.5" y="83.1426">exemple(): void</text></g><!--MD5=[3618a374bd976662547feba7b42f282d]
class Scenario--><g id="elem_Scenario"><rect codeLine="28" fill="#F1F1F1" height="100.8281" id="Scenario" rx="2.5" ry="2.5" style="stroke:#181818;stroke-width:0.5;" width="267" x="208.5" y="150"/><ellipse cx="309.75" cy="166" fill="#ADD1B2" rx="11" ry="11" style="stroke:#181818;stroke-width:1.0;"/><path d="M312.5156,161.875 Q312.6719,161.6563 312.8594,161.5469 Q313.0469,161.4375 313.2656,161.4375 Q313.6406,161.4375 313.875,161.6953 Q314.1094,161.9531 314.1094,162.5625 L314.1094,164.0156 Q314.1094,164.625 313.875,164.8906 Q313.6406,165.1563 313.2656,165.1563 Q312.9219,165.1563 312.7188,164.9531 Q312.5156,164.7656 312.4063,164.25 Q312.3594,163.8906 312.1719,163.7031 Q311.8438,163.3281 311.2344,163.1094 Q310.625,162.8906 310,162.8906 Q309.2344,162.8906 308.6016,163.2188 Q307.9688,163.5469 307.4766,164.2969 Q306.9844,165.0469 306.9844,166.0781 L306.9844,167.1719 Q306.9844,168.4063 307.875,169.2266 Q308.7656,170.0469 310.3594,170.0469 Q311.2969,170.0469 311.9531,169.7969 Q312.3438,169.6406 312.7656,169.2031 Q313.0313,168.9375 313.1797,168.8594 Q313.3281,168.7813 313.5313,168.7813 Q313.8594,168.7813 314.1172,169.0391 Q314.375,169.2969 314.375,169.6406 Q314.375,169.9844 314.0313,170.3906 Q313.5313,170.9688 312.7344,171.2969 Q311.6563,171.75 310.3594,171.75 Q308.8438,171.75 307.6406,171.125 Q306.6563,170.625 305.9688,169.5547 Q305.2813,168.4844 305.2813,167.2031 L305.2813,166.0469 Q305.2813,164.7188 305.8984,163.5703 Q306.5156,162.4219 307.6094,161.8047 Q308.7031,161.1875 309.9375,161.1875 Q310.6719,161.1875 311.3203,161.3516 Q311.9688,161.5156 312.5156,161.875 Z " fill="#000000"/><text fill="#000000" font-family="sans-serif" font-size="14" lengthAdjust="spacing" textLength="56" x="330.25" y="171.7285">Scenario</text><line style="stroke:#181818;stroke-width:0.5;" x1="209.5" x2="474.5" y1="182" y2="182"/><rect fill="none" height="6" style="stroke:#C82930;stroke-width:1.0;" width="6" x="216.5" y="193.3047"/><text fill="#000000" font-family="sans-serif" font-size="14" lengthAdjust="spacing" textLength="241" x="228.5" y="200.5332">effets: LinkedHashMap&lt;Effet, Integer&gt;</text><line style="stroke:#181818;stroke-width:0.5;" x1="209.5" x2="474.5" y1="207.6094" y2="207.6094"/><ellipse cx="219.5" cy="221.9141" fill="#84BE84" rx="3" ry="3" style="stroke:#038048;stroke-width:1.0;"/><text fill="#000000" font-family="sans-serif" font-size="14" lengthAdjust="spacing" textLength="169" x="228.5" y="226.1426">ajouterEffet(Effet, int): void</text><ellipse cx="219.5" cy="239.5234" fill="#84BE84" rx="3" ry="3" style="stroke:#038048;stroke-width:1.0;"/><text fill="#000000" font-family="sans-serif" font-size="14" lengthAdjust="spacing" textLength="132" x="228.5" y="243.752">jouerScenario(): void</text></g><!--MD5=[3863d5fe4b6011eebc47fbd9cb48da1f]
class Bandeau--><g id="elem_Bandeau"><rect codeLine="33" fill="#F1F1F1" height="153.6563" id="Bandeau" rx="2.5" ry="2.5" style="stroke:#181818;stroke-width:0.5;" width="157" x="532.5" y="542"/><ellipse cx="578.25" cy="558" fill="#ADD1B2" rx="11" ry="11" style="stroke:#181818;stroke-width:1.0;"/><path d="M581.0156,553.875 Q581.1719,553.6563 581.3594,553.5469 Q581.5469,553.4375 581.7656,553.4375 Q582.1406,553.4375 582.375,553.6953 Q582.6094,553.9531 582.6094,554.5625 L582.6094,556.0156 Q582.6094,556.625 582.375,556.8906 Q582.1406,557.1563 581.7656,557.1563 Q581.4219,557.1563 581.2188,556.9531 Q581.0156,556.7656 580.9063,556.25 Q580.8594,555.8906 580.6719,555.7031 Q580.3438,555.3281 579.7344,555.1094 Q579.125,554.8906 578.5,554.8906 Q577.7344,554.8906 577.1016,555.2188 Q576.4688,555.5469 575.9766,556.2969 Q575.4844,557.0469 575.4844,558.0781 L575.4844,559.1719 Q575.4844,560.4063 576.375,561.2266 Q577.2656,562.0469 578.8594,562.0469 Q579.7969,562.0469 580.4531,561.7969 Q580.8438,561.6406 581.2656,561.2031 Q581.5313,560.9375 581.6797,560.8594 Q581.8281,560.7813 582.0313,560.7813 Q582.3594,560.7813 582.6172,561.0391 Q582.875,561.2969 582.875,561.6406 Q582.875,561.9844 582.5313,562.3906 Q582.0313,562.9688 581.2344,563.2969 Q580.1563,563.75 578.8594,563.75 Q577.3438,563.75 576.1406,563.125 Q575.1563,562.625 574.4688,561.5547 Q573.7813,560.4844 573.7813,559.2031 L573.7813,558.0469 Q573.7813,556.7188 574.3984,555.5703 Q575.0156,554.4219 576.1094,553.8047 Q577.2031,553.1875 578.4375,553.1875 Q579.1719,553.1875 579.8203,553.3516 Q580.4688,553.5156 581.0156,553.875 Z " fill="#000000"/><text fill="#000000" font-family="sans-serif" font-size="14" lengthAdjust="spacing" textLength="57" x="598.75" y="563.7285">Bandeau</text><line style="stroke:#181818;stroke-width:0.5;" x1="533.5" x2="688.5" y1="574" y2="574"/><ellipse cx="543.5" cy="588.3047" fill="none" rx="3" ry="3" style="stroke:#038048;stroke-width:1.0;"/><text fill="#000000" font-family="sans-serif" font-size="14" lengthAdjust="spacing" textLength="102" x="552.5" y="592.5332">message: String</text><ellipse cx="543.5" cy="605.9141" fill="none" rx="3" ry="3" style="stroke:#038048;stroke-width:1.0;"/><text fill="#000000" font-family="sans-serif" font-size="14" lengthAdjust="spacing" textLength="99" x="552.5" y="610.1426">rotation: double</text><ellipse cx="543.5" cy="623.5234" fill="none" rx="3" ry="3" style="stroke:#038048;stroke-width:1.0;"/><text fill="#000000" font-family="sans-serif" font-size="14" lengthAdjust="spacing" textLength="117" x="552.5" y="627.752">background: Color</text><ellipse cx="543.5" cy="641.1328" fill="none" rx="3" ry="3" style="stroke:#038048;stroke-width:1.0;"/><text fill="#000000" font-family="sans-serif" font-size="14" lengthAdjust="spacing" textLength="112" x="552.5" y="645.3613">foreground: Color</text><ellipse cx="543.5" cy="658.7422" fill="none" rx="3" ry="3" style="stroke:#038048;stroke-width:1.0;"/><text fill="#000000" font-family="sans-serif" font-size="14" lengthAdjust="spacing" textLength="61" x="552.5" y="662.9707">font: Font</text><line style="stroke:#181818;stroke-width:0.5;" x1="533.5" x2="688.5" y1="670.0469" y2="670.0469"/><ellipse cx="543.5" cy="684.3516" fill="#84BE84" rx="3" ry="3" style="stroke:#038048;stroke-width:1.0;"/><text fill="#000000" font-family="sans-serif" font-size="14" lengthAdjust="spacing" textLength="131" x="552.5" y="688.5801">sleep(millis: int): void</text></g><!--MD5=[f2386edae11b4ea42e19e7753e3b14ce]
link EffetApparition to Effet--><g id="link_EffetApparition_Effet"><path codeLine="42" d="M170.54,242.01 C177.41,245.16 184.3,248.2 191,251 C289.86,292.27 405.11,331.31 489.85,358.38 " fill="none" id="EffetApparition-to-Effet" style="stroke:#181818;stroke-width:1.0;"/><polygon fill="none" points="492.13,351.76,509.08,364.48,487.9,365.1,492.13,351.76" style="stroke:#181818;stroke-width:1.0;"/></g><!--MD5=[244208f29afa24d9893b830c58438bc1]
link EffetFondRandom to Effet--><g id="link_EffetFondRandom_Effet"><path codeLine="43" d="M611,233.54 C611,249.44 611,269.65 611,290.36 " fill="none" id="EffetFondRandom-to-Effet" style="stroke:#181818;stroke-width:1.0;"/><polygon fill="none" points="618,290.67,611,310.67,604,290.67,618,290.67" style="stroke:#181818;stroke-width:1.0;"/></g><!--MD5=[336dbe0a95141061b72d6a9b43a1a4a8]
link EffetCouleurRandom to Effet--><g id="link_EffetCouleurRandom_Effet"><path codeLine="44" d="M808.03,233.54 C785.95,251.69 757.03,275.46 728.17,299.18 " fill="none" id="EffetCouleurRandom-to-Effet" style="stroke:#181818;stroke-width:1.0;"/><polygon fill="none" points="732.56,304.64,712.66,311.93,723.67,293.82,732.56,304.64" style="stroke:#181818;stroke-width:1.0;"/></g><!--MD5=[40f19c1c1854834fe5fe17083f4aa348]
link EffetTourEntier to Effet--><g id="link_EffetTourEntier_Effet"><path codeLine="45" d="M1000.57,233.62 C989.22,239.61 977.32,245.67 966,251 C889.37,287.08 801.19,323.01 731.88,350.01 " fill="none" id="EffetTourEntier-to-Effet" style="stroke:#181818;stroke-width:1.0;"/><polygon fill="none" points="734.03,356.68,712.85,357.38,728.97,343.63,734.03,356.68" style="stroke:#181818;stroke-width:1.0;"/></g><!--MD5=[2de6d679e8f3d113de59313437537c0f]
reverse link Scenario to Effet--><g id="link_Scenario_Effet"><path codeLine="46" d="M421.65,258.95 C449.12,278.75 480.27,301.22 509.25,322.12 " fill="none" id="Scenario-backto-Effet" style="stroke:#181818;stroke-width:1.0;"/><polygon fill="none" points="410.92,251.21,413.4481,257.9634,420.6544,258.2272,418.1263,251.4738,410.92,251.21" style="stroke:#181818;stroke-width:1.0;"/><text fill="#000000" font-family="sans-serif" font-size="13" lengthAdjust="spacing" textLength="5" x="496.5941" y="313.5685">*</text></g><!--MD5=[490505852cbdc06bc7f6ce0d23fcb081]
reverse link Effet to Bandeau--><g id="link_Effet_Bandeau"><path codeLine="47" d="M611,495.17 C611,510.83 611,526.84 611,541.9 " fill="none" id="Effet-backto-Bandeau" style="stroke:#181818;stroke-width:1.0;"/><polygon fill="none" points="611,482.12,607,488.12,611,494.12,615,488.12,611,482.12" style="stroke:#181818;stroke-width:1.0;"/><text fill="#000000" font-family="sans-serif" font-size="13" lengthAdjust="spacing" textLength="5" x="605.7539" y="531.0523">*</text></g><!--MD5=[44fe3ac56285c4b3a64792caa2fef34b]
link ExempleDUtilisation to Scenario--><g id="link_ExempleDUtilisation_Scenario"><path codeLine="48" d="M250.1,90.09 C264.46,107.19 281.39,127.34 296.77,145.65 " fill="none" id="ExempleDUtilisation-to-Scenario" style="stroke:#181818;stroke-width:1.0;stroke-dasharray:7.0,7.0;"/><polygon fill="#181818" points="300.23,149.78,297.5066,140.3152,297.015,145.9506,291.3796,145.4591,300.23,149.78" style="stroke:#181818;stroke-width:1.0;"/></g><!--MD5=[12194a255a86061b8d53dbaa498a8f95]
link ExempleDUtilisation to EffetApparition--><g id="link_ExempleDUtilisation_EffetApparition"><path codeLine="49" d="M182.17,90.09 C165.5,110.1 145.35,134.28 128.23,154.82 " fill="none" id="ExempleDUtilisation-to-EffetApparition" style="stroke:#181818;stroke-width:1.0;stroke-dasharray:7.0,7.0;"/><polygon fill="#181818" points="124.85,158.88,133.683,154.5235,128.0495,155.0377,127.5353,149.4043,124.85,158.88" style="stroke:#181818;stroke-width:1.0;"/></g><!--MD5=[44fb569aa2aed3eda5cb3c0019da4add]
@startuml

class Effet {
  # bandeau: Bandeau
  # message: String
  + getMessage(): String
  + jouerEffet(): void
  + setBandeau(Bandeau): void
  + getBandeau(): Bandeau
  + setMessage(String): void
}
class EffetApparition { 
  # direction: String
  + faireApparaitre(): void
}
class EffetFondRandom {
  + changeCouleurFond(): void
}
class EffetCouleurRandom {
  + changeCouleurTexte(): void
}
class EffetTourEntier { 
  + faireTourner(): void
}
class ExempleDUtilisation {
  + main(String[]): void
  + exemple(): void
}
class Scenario {
  - effets: LinkedHashMap<Effet, Integer>
  + ajouterEffet(Effet, int): void
  + jouerScenario(): void
}
class Bandeau {
  + message: String
  + rotation: double
  + background: Color
  + foreground: Color
  + font: Font
  + sleep(millis: int): void
}

EffetApparition - -^ Effet               
EffetFondRandom - -^ Effet
EffetCouleurRandom - -^ Effet              
EffetTourEntier - -^ Effet
Scenario o- - "*" Effet
Effet o- - "*" Bandeau
ExempleDUtilisation ..> Scenario
ExempleDUtilisation ..> EffetApparition            
@enduml

PlantUML version 1.2022.7(Mon Aug 22 19:01:30 CEST 2022)
(GPL source distribution)
Java Runtime: Java(TM) SE Runtime Environment
JVM: Java HotSpot(TM) 64-Bit Server VM
Default Encoding: Cp1252
Language: fr
Country: FR
--></g></svg>